# xmcd CD database file
#
# Track frame offsets:
#	150
#	16521
#	31759
#	45039
#	62614
#	79071
#	94526
#	110734
#	122385
#	137638
#	152793
#	164269
#	179397
#	192412
#	205795
#	219038
#	229812
#	241858
#
# Disc length: 3410 seconds
#
# Revision: 3
# Processed by: cddbd v1.5.2PL0 Copyright (c) Steve Scherf et al.
# Submitted via: CDex 1.51
#
DISCID=d30d5012
DTITLE=Robert Nighthawk and Houston Stackhouse - Masters Of Modern Blues
DYEAR=1994
DGENRE=Blues
TTITLE0=Robert Nighthawk - Black Angel Blues
TTITLE1=Robert Nighthawk - Maggie Campbell
TTITLE2=Robert Nighthawk - Crowing Rooster Blues
TTITLE3=Robert Nighthawk - I'm Getting Tired
TTITLE4=Robert Nighthawk - Bricks In My Pillow
TTITLE5=Robert Nighthawk - Merry Christmas Baby
TTITLE6=Robert Nighthawk - Crying Won't Help You
TTITLE7=Robert Nighthawk - Kansas City
TTITLE8=Johnny Young - Kidman Blues
TTITLE9=Robert Nighthawk - Bricks In My Pillow (alt.)
TTITLE10=Houston Stackhouse - Big Road Blues
TTITLE11=Houston Stackhouse - Cool Water Blues
TTITLE12=Houston Stackhouse - Big Fat Mama Blues
TTITLE13=Houston Stackhouse - Take A Little Walk With Me
TTITLE14=Houston Stackhouse - Bye Bye Blues
TTITLE15=Houston Stackhouse - Mean Old World
TTITLE16=Houston Stackhouse - The Wrong Man
TTITLE17=Houston Stackhouse - Kansas City Blues
EXTD=TCD 5010\n\nSubmitted 6/16/97\n[Jmccoy@efn.org] YEAR: 1994
EXTT0=Nighthawk, Robert
EXTT1=Nighthawk, Robert
EXTT2=Nighthawk, Robert
EXTT3=Nighthawk, Robert
EXTT4=Nighthawk, Robert
EXTT5=Nighthawk, Robert
EXTT6=Nighthawk, Robert
EXTT7=Nighthawk, Robert
EXTT8=Young, Johnny
EXTT9=Nighthawk, Robert
EXTT10=
EXTT11=Stackhouse, Houston
EXTT12=Stackhouse, Houston
EXTT13=Stackhouse, Houston
EXTT14=Stackhouse, Houston
EXTT15=Stackhouse, Houston
EXTT16=Stackhouse, Houston
EXTT17=Stackhouse, Houston
PLAYORDER=
